<svg width="256" height="256" version="1.1" xmlns="http://www.w3.org/2000/svg" desc="Created with imagetracer.js version 1.2.6" ><path fill="rgb(0,0,0)" stroke="rgb(0,0,0)" stroke-width="1" opacity="0" d="M 0 0 L 256 0 L 256 256 L 0 256 L 0 0 Z M 63 68 L 62 69 L 52 69 L 48 72 L 40 81 L 37 94 L 37 99 L 55 111 L 65 112 L 64 117 L 62 118 L 59 123 L 51 155 L 51 161 L 63 174 L 51 174 L 49 175 L 38 189 L 38 190 L 23 190 L 22 192 L 199 192 L 199 190 L 184 190 L 166 174 L 159 174 L 158 173 L 161 171 L 161 168 L 153 155 L 117 118 L 115 118 L 116 111 L 124 111 L 142 103 Q 145 104 143 100 L 149 97 Q 152 98 151 95 L 225 95 L 227 96 L 229 96 Q 235 97 237 94 L 237 85 L 236 83 L 215 83 L 214 84 L 153 84 L 145 80 L 140 80 L 138 80 L 135 79 L 132 80 L 111 68 L 65 68 L 63 68 Z " /><path fill="rgb(0,0,0)" stroke="rgb(0,0,0)" stroke-width="1" opacity="0" d="M 73.5 70 L 76.5 71 L 79.5 70 L 81.5 70 L 107.5 70 L 112.5 71 L 128.5 80 L 135 85.5 L 140 96.5 L 138.5 97 L 135.5 96 L 135.5 97 L 141 99 L 139.5 102 L 122.5 109 L 72.5 109 L 48.5 100 L 42.5 100 L 39 97.5 L 43 79 L 108.5 85 Q 109.7 87.2 114.5 86 L 123.5 90 L 122.5 88 L 111.5 84 L 102.5 84 L 101.5 83 L 92.5 83 L 91.5 82 L 45 77.5 L 52.5 71 L 72.5 71 L 73.5 70 Z M 125 90 L 126 92 L 132 95 L 133 95 L 125 90 Z " /><path fill="rgb(0,0,0)" stroke="rgb(0,0,0)" stroke-width="1" opacity="0" d="M 134.5 81 L 143.5 82 L 149 85.5 L 149 94.5 L 147.5 96 L 142.5 97 L 137 84.5 L 134.5 81 Z " /><path fill="rgb(0,0,0)" stroke="rgb(0,0,0)" stroke-width="1" opacity="0" d="M 151 85 L 160.5 85 L 161.5 86 L 163.5 86 L 214.5 86 L 215 86.5 L 215 93 L 158.5 93 L 157.5 94 L 155.5 94 L 151 94 L 151 85 Z " /><path fill="rgb(0,0,0)" stroke="rgb(0,0,0)" stroke-width="1" opacity="0" d="M 216 85 L 235 85 L 235 93 L 216 93 L 216 85 Z M 232 87 L 232 92 L 234 92 L 234 90 Q 235 86 232 87 Z " /><path fill="rgb(0,0,0)" stroke="rgb(0,0,0)" stroke-width="1" opacity="0" d="M 44.5 101 L 69 108.5 L 62.5 110 L 53.5 108 L 44.5 102 L 44.5 101 Z " /><path fill="rgb(0,0,0)" stroke="rgb(0,0,0)" stroke-width="1" opacity="0" d="M 69.5 111 L 113.5 111 L 114 112.5 L 113 117 L 66.5 117 L 66 115.5 L 69.5 111 Z " /><path fill="rgb(0,0,0)" stroke="rgb(0,0,0)" stroke-width="1" opacity="0" d="M 65.5 119 L 113.5 119 L 145 149.5 L 151 156.5 L 109 157.5 L 111.5 159 L 151.5 159 Q 152.8 156.8 154 159.5 L 159 168.5 L 157.5 170 L 63.5 170 L 56 163.5 L 53 159.5 L 53 154.5 L 55 150.5 L 55 146.5 L 60 127 L 81.5 129 L 91.5 139 L 92 137.5 L 82.5 128 L 61 126 L 62 120 L 65.5 119 Z M 93 139 L 92 141 L 101 149 L 93 139 Z M 102 149 L 101 151 L 109 157 L 102 149 Z " /><path fill="rgb(0,0,0)" stroke="rgb(0,0,0)" stroke-width="1" opacity="0" d="M 65 172 L 155.5 172 L 156 174 L 65.5 174 L 65 172 Z " /><path fill="rgb(0,0,0)" stroke="rgb(0,0,0)" stroke-width="1" opacity="0" d="M 50.5 176 L 165.5 176 L 180 189.5 L 40.5 190 L 42 187.5 L 50.5 176 Z " /><path fill="rgb(9,14,20)" stroke="rgb(9,14,20)" stroke-width="1" opacity="0.8980392156862745" d="M 62.5 68 L 64.5 68 L 110.5 68 L 131.5 80 L 134.5 79 L 137.5 80 L 139.5 80 L 144.5 80 L 152.5 84 L 213.5 84 L 214.5 83 L 235.5 83 L 237 84.5 L 237 93.5 Q 235 97 228.5 96 L 226.5 96 L 224.5 95 L 151 95 Q 152.3 98 148.5 97 L 143 99.5 Q 144.5 103.9 141.5 103 L 123.5 111 L 116 111 L 115 118 L 116.5 118 L 153 154.5 L 161 167.5 L 161 171 L 158 172.5 L 158.5 174 L 165.5 174 L 183.5 190 L 199 190 L 198.5 192 L 21.5 192 L 22.5 190 L 37.5 190 L 38 188.5 L 48.5 175 L 50.5 174 L 63 173.5 L 51 160.5 L 51 154.5 L 59 122.5 L 61.5 118 L 64 116.5 L 65 112 L 54.5 111 L 37 98.5 L 37 93.5 L 40 80.5 L 47.5 72 L 51.5 69 L 61.5 69 L 62.5 68 Z M 74 70 L 73 71 L 53 71 L 45 78 L 92 82 L 93 83 L 102 83 L 103 84 L 112 84 L 119 86 L 139 97 L 140 97 L 135 86 L 129 80 L 113 71 L 108 70 L 82 70 L 80 70 L 77 71 L 74 70 Z M 43 79 L 39 98 L 43 100 L 49 100 L 73 109 L 123 109 L 140 102 L 141 99 L 115 86 L 43 79 Z M 135 81 L 137 85 L 143 97 L 148 96 L 149 95 L 149 86 L 144 82 L 135 81 Z M 151 85 L 151 94 L 156 94 L 158 94 L 159 93 L 215 93 L 215 87 L 215 86 L 164 86 L 162 86 L 161 85 L 151 85 Z M 216 85 L 216 93 L 235 93 L 235 85 L 216 85 Z M 45 101 L 45 102 L 54 108 L 63 110 L 69 109 L 45 101 Z M 70 111 L 66 116 L 67 117 L 113 117 L 114 113 L 114 111 L 70 111 Z M 66 119 L 62 120 L 61 126 L 83 128 L 110 157 L 151 157 L 145 150 L 114 119 L 66 119 Z M 60 127 L 55 147 L 55 151 L 53 155 L 53 160 L 56 164 L 64 170 L 158 170 L 159 169 L 154 160 Q 153 157 152 159 L 112 159 L 108 157 L 92 140 L 82 129 L 60 127 Z M 65 172 L 66 174 L 156 174 L 156 172 L 65 172 Z M 51 176 L 42 188 L 41 190 L 180 190 L 166 176 L 51 176 Z " /><path fill="rgb(9,14,20)" stroke="rgb(9,14,20)" stroke-width="1" opacity="0.8980392156862745" d="M 232 87 Q 235 85.8 234 89.5 L 233.5 92 L 232 92 L 232 87 Z " /></svg>